P2
# Created by GIMP version 2.8
5 5
255
0
255
255
255
0
255
0
255
0
255
255
255
0
255
255
255
0
255
0
255
0
255
255
255
0
