P3
# CREATOR: GIMP PNM Filter Version 1.1
6 3
255
63
63
255
63
63
255
255
255
255
255
255
255
255
63
63
255
63
63
63
63
255
63
63
255
255
255
255
255
255
255
255
63
63
255
63
63
63
63
255
63
63
255
255
255
255
255
255
255
255
63
63
255
63
63
