P2
# Created à la main by moi ;-) !
5 5
256
255
0
0
0
255
0
255




255
    255
        0 0     0 0 0 0 0
255
255 255   255 255
0
0
0
255
