P1
# Created by GIMP version 2.10.18 PNM plug-in
200 150
0000000000000000000000000000000000000000000000000000000000000000000000
0000000000000000000000000000000000000000000000000000000000000000000000
0000000000000000000000000000000000000000000000000000000000000000000000
0000000000000000000000000000000000000000000000000000000000000000000000
0000000000000000000000000000000000000000000000000000000000000000000000
0000000000000000000000000000000000000000000000000000000000000000000000
0000000000000000000000000000000000000000000000000000000000000000000000
0000000000000000000000000000000000000000000000000000000000000000000000
0000000000000000000000000000000000000000000000000000000000000000000000
0000000000000000000000000000000000000000000000000000000000000000000000
0000000000000000000000000000000000000000000000000000000000000000000000
0000000000000000000000000000000000000000000000000000000000000000000000
0000000000000000000000000000000000000000000000000000000000000000000000
0000000000000000000000000000000000000000000000000000000000000000000000
0000000000000000000000000000000000000000000000000000000000000000000000
0000000000000000000000000000000000000000000000000000000000000000000000
0000000000000000000000000000000000000000000000000000000000000000000000
0000000000000000000000000000000000000000000000000000000000000000000000
0000000000000000000000000000000000000000000000000000000000000000000000
0000000000000000000000000000000000000000000000000000000000000000000000
0000000000000000000000000000000000000000000000000000000000000000000000
0000000000000000000000000000000000000000000000000000000000000000000000
0000000000000000000000000000000000000000000000000000000000000000000000
0000000000000000000000000000000000000000000000000000000000000000000000
0000000000000000000000000000000000000000000000000000000000000000000000
0000000000000000000000000000000000000000000000000000000000000000000000
0000000000000000000000000000000000000000000000000000000000000000000000
0000000000000000000000000000000000000000000000000000000000000000000000
0000000000000000000000000000000000000000000000000000000000000000000000
0000000000000000000000000000000000000000000000000000000000000000000000
0000000000000000000000000000000000000000000000000000000000000000000000
0000000000000000000000000000000000000000000000000000000000000000000000
0000000000000000000000000000000000000000000000000000000000000000000000
0000000000000000000000000000000000000000000000000000000000000000000000
0000000000000000000000000000000000000000000000000000000000000000000000
0000000000000000000000000000000000000000000000000000000000000000000000
0000000000000000000000000000000000000000000000000000000000000000000000
0000000000000000000000000000000000000000000000000000000000000000000000
0000000000000000000000000000000000000000000000000000000000000000000000
0000000000000000000000000000000000000000000000000000000000000000000000
0000000000000000000000000000000000000000000000000000000000000000000000
0000000000000000000000000000000000000000000000000000000000000000000000
0000000000000000000000000000000000000000000000000000000000000000000000
0000000000000000000000000000000000000000000000000000000000000000000000
0000000000000000000000000000000000000000000000000000000000000000000000
0000000000000000000000000000000000000000000000000000000000000000000000
0000000000000000000000000000000000000000000000000000000000000000000000
0000000000000000000000000000000000000000000000000000000000000000000000
0000000000000000000000000000000000000000000000000000000000000000000000
0000000000000000000000000000000000000000000000000000000000000000000000
0000000000000000000000000000000000000000000000000000000000000000000000
0000000000000000000000000000000000000000000000000000000000000000000000
0000000000000000000000000000000000000000000000000000000000000000000000
0000000000000000000000000000000000000000000000000000000000000000000000
0000000000000000000000000000000000000000000000000000000000000000000000
0000000000000000000000000000000000000000000000000000000000000000000000
0000000000000000000000000000000000000000000000000000000000000000000000
0000000000000000000000000000000000000000000000000000000000000000000000
0000000000000000000000000000000000000000000000000000000000000000000000
0000000000000000000000000000000000000000000000000000000000000000000000
0000000000000000000000000000000000000000000000000000000000000000000000
0000000000000000000000000000000000000000000000000000000000000000000000
0000000000000000000000000000000000000000000000000000000000000000000000
0000000000000000000000000000000000000000000000000000000000000000000000
0000000000000000000000000000000000000000111111010000100000000000000000
0000000000000000000000000000000000000000000000000000000000000000000000
0000000000000000000000000000000000000000000000000000000000000000000000
0000000000000000000000000000011111111100011000000000000000000000000000
0000000000000000000000000000000000000000000000000000000000000000000000
0000000000000000000000000000000000000000000000000000000000000000000000
0000000000000000000111111011000111000000000000000000000000000000000000
0000000000000000000000000000000000000000000000000000000000000000000000
0000000000000000000000000000000000000000000000000000000000000000000000
0000000011111111011001111000000000000000000000000000000000000000000000
0000000000000000000000000000000000000000000000000000000000000000000000
0000000000000000000000000000000000000000000000000000000000000000000111
1111110110111110000000000000000000000000000000000000000000000000000000
0000000000000000000000000000000000000000000000000000000000000000000000
0000000000000000000000000000000000000000000000000000000011111111111001
1111111000000000000000000000000000000000000000000000000000000000000000
0000000000000000000000000000000000000000000000000000000000000000000000
0000000000000000000000000000000000000000000001111111111111011111111100
0000000000000000000000000000000000000000000000000000000000000000000000
0000000000000000000000000000000000000000000000000000000000000000000000
0000000000000000000000000000000000110111111111111111111001000000000000
0000000000000000000000000000000000000000000000000000000000000000000000
0000000000000000000000000000000000000000000000000000000000000000000000
0000000000000000000000111111111111111111111110001100000000000000000000
0000000000000000000000000000000000000000000000000000000000000000000000
0000000000000000000000000000000000000000000000000000000000000000000000
0000000000011111111111111111111111110011000000000000000000000000000000
0000000000000000000000000000000000000000000000000000000000000000000000
0000000000000000000000000000000000000000000000000000000000000000000000
1111111111111111111111111110100100000000000000000000000000000000000000
0000000000000000000000000000000000000000000000000000000000000000000000
0000000000000000000000000000000000000000000000000000000000001111110011
1111111111111111111000011000000000000000000000000000000000000000000000
0000000000000000000000000000000000000000000000000000000000000000000000
0000000000000000000000000000000000000000000000000011111110011111111111
1111101110001000000000000000000000000000000000000000000000000000000000
0000000000000000000000000000000000000000000000000000000000000000000000
0000000000000000000000000000000000000000111111111111111111111110000110
1011000010000000000000000000000000000000000000000000000000000000000000
0000000000000000000000000000000000000000000000000000000000000000000000
0000000000000000000000000000011111111011111111111111110101001101100010
0000000000000000000000000000000000000000000000000000000000000000000000
0000000000000000000000000000000000000000000000000000000000000000000000
0000000000000000001111111110011111111111111110000111000100011000000000
0000000000000000000000000000000000000000000000000000000000000000000000
0000000000000000000000000000000000000000000000000000000000000000000000
0000000001111111101111111111101111110001110000110110000000000000000000
0000000000000000011111100000000000000000000000000000000000000000000000
0000000000000000000000000000000000000000000000000000000000000000000111
1111111011111111110111111111111111000000111000000000000000000000000000
0000101111110000000000000000000000000000000000000000000000000000000000
0000000000000000000000000000000000000000000000000000000001111111111011
1111111101111111001111111010000111000000000000000000000000001111111111
1100000000000000000000000000000000000000000000000000000000000000000000
0000000000000000000000000000000000000000000000011111110010111111111101
1111000000000011000110110000000000000000000000001111111111111010000000
0000000000000000000000000000000000000000000000000000000000000000000000
0000000000000000000000000000000000001111110000011111111111111100000000
0001100000100111000000000000000000011111111111111100111000000000000000
0000000000000000000000000000000000000000000000000000000000000000000000
0000000000000000000000000111111110000001111111110010100000000000000010
0101111110000000000000001111111111111111001100000100000000000000000000
0000000000000000000000000000000000000000000000000000000000000000000000
0000000000000001111110100010011011111000001100001100000000100000001110
0000000000000111111111111111110000001111000000000000000000000000000000
0000000000000000000000000000000000000000000000000000000000000000000000
0000111111111000100000111001010101110100000000000000000000000000000000
1111111111111111000000011111100000000000000000000000000000000000000000
0000000000000000000000000000000000000000000000000000000000000011111111
1111100000001111101110110111010001000000001100000000000000000111101111
1111110000011111111100000000000000000000000000000000000000000000000000
0000000000000000000000000000000000000000000000000001111111111111100001
1111110000000000111100100000000011000000111100000000110000111111000000
1111111111000000000000000000000000000000000000000000000000000000000000
0000000000000000000000000000000000000000111111111111111101000001111111
1000000000000000000000001000000011000000000000001111100111111110011111
0000000000000000000000000000000000000000000000000000000000000000000000
0000000000000000000000000011111111110100111111110000001111111000000000
0000111100100000000000000000000000000000100011111111101111100000000000
0000000000000000000000000000000000000000000000000000000000000000000000
0000000000000101111011000000000000111110000001001110000000000110111111
0000011000000000000000000000001111111111111110000000000000000000000000
0000000000000000000000000000000000000000000000000000000000000000000000
0011110000000100000000001110000000000000111110000111101011111110001100
0111111111010001001111111110000000000000000000000000000000000000000000
0000000000000000000000000000000000000000000000000000000000010111100110
0001000000000011100000000000000011001111110000111111100101111111111111
1111111111100000000000000000000000000000000000000000000000000000000000
0000000000000000000000000000000000000000000000001010111111111100000000
0000110000000000000111100011111000001111111001111111111111111111111111
1110000000000000000000000000000000000000000000000000000000000000000000
0000000000000011000011000000000000000011101111111111100000000001110000
0000000010000011111100000011111010111111111111111111111111111111110000
0000000000000000000000000000000000000000000000000000000000000000100000
0000111111110100001010000111110111110110111000000000011111110011001111
0000000000111111110001101111111111111111111111111111111110000000000000
0000000000000000000000000000000000000000000000000111011000111110011111
1100000001001101110011111001111100000100000111111001111111111111000001
1111100001110011111111111111111111111111111111111100000000000000000000
0000000000000000000000000000000000000010000110010111100010101100000000
0111011000011111111110000000000111111101111111111111001100001100000000
0111111111111111111111111111111111111111110000000100000000000000000000
0000000000000000000000000000000000100101111100000000000000001110000000
1111111111100000111010111110111101101111111111000000001011010011111111
1111111111111111111111111111111111110001000000000000000000000000000000
0000000000000000001100000000001110000000000000110001100000001111111111
0010111111111011000001000011111111100001001111011100001111111111111111
1001111111111111111111111111010000000000000000000000000000000000000000
0000001000000110000000011001011110111000100000000111111111111100111000
1110000000010011111110000000000000011110100100111111011110110111111001
1111111111111111111100000000000000000000000000000000000000000000011110
0001110000000000111111010010000000000000111111111100000110111100000000
0000011111000000000011000110111111100000111000000111111111001111111111
1111111111000000000110000000000000000000000000000000000000100000000000
0001101111010000010010000011100001111111001111110111100011100000111110
0000000000000000111111011100111110000011111111111111111111111111111111
0000001011101110000000000000000000000000010000000000000000000011111110
1011110101100001111110111111110001111100000000111111111100000000000000
0111110111111101111100111111111100111111111111111111111111110000000111
0001101100000000000001100111110110000000000000000011111110011111110111
1001111111111111111101111101011010001111111100000001011110000000111001
1100111111111110111111111111111111111111111111111111111110011111111110
0000010000000011100000000000000000000001111100011111111111110011111111
1111111111100001011110111111000000000100110011001000001111001001111111
1111110111111111111111111111111100111111111100001111110000000000111001
1100000010000100000000000000111111000111111111101111111111111111110001
1001111101111100111000000000000011110110000111100111111111111111111111
1111111111111111111111111110011100000000001100000000111110000000000000
0011100000000000111111111111111111111111111111100110000110001000111111
1111000100000000000001111101000111111111111111111111111111111111111111
0111111111111111111111000000000000000000000011100000000000000010111111
0011111111111111111111111111111110000000000001100000001011000000000000
0000001110111111111011111110000111111111111111111111111110000111111111
1111111111000000100000000000000000111110000000000111111111111111000000
0101111111111111111111001100000001000000011000000000000011110111111110
0110111111111111111111111111111111111111111100000111111111100011111111
1000010000000001111000000001000000000000011110110100100000000110000101
1111110100001110000000000000001101111111111001111111111000001111100111
1111111111111111111111111111111111101110111110000011111111110000000000
0000000000000000000000011000011111011110000110111000000000001111000010
1111100000111100011111111111111111111111111111111111111111111111111111
1111111111110111100000000111001111111111111111111100000000000000000000
0000000001100001100011111110111101111111000000000000000000000000000000
0000000111111111111111111111111111111111111111111111111111111111111111
1111111111111100000111111111111111111001000000000000000000110000111111
1111111111111111111110000000000000000000000000000000000000000000000000
0000110011111111111111111111111111111111111111111111111111111111111111
1111000001111111111111111111110000100000000000000000000000000000000000
0111100000000000000000000000000000000000000000000000000000000000000001
1111111111111111111111111111111111111111111111111111111111111111110011
1011000000001111110100010000000000000000000000000000000000000000000000
0000000000000000000000000000000000000000000000000000000000011111111111
1111111111111111111111111111111111111111111111111111110000000011001101
1111111111001000000000000000000000000000000000000000000000000000000000
0000000000000000000000000000000000000000000000001111111111111111111111
1111111111111111111111111111111111111111110000000011111111111111000001
0000000000000000000000000000000000000000000000000000000000000000000000
0000000000000000000000000000000000000111111111111111111111111111111111
1111111111111111100000000000000000000000111111111111010011110000000000
0000000000000000000000000000000000000000000000000000000000000000000000
0000000000000000000000000001111111111111111111111111111111111111111111
1111110000000000000000000000011111111100101111111100000000000000000000
0000000000000000000000000000000000000000000000000000000000000000000000
0000000000000000111111111111111111111111111111111111111111111111111100
0000000000000000011111110111100001111111000000000000000000000000000000
0000000000000000000000000000000000000000000000000000000000000000000000
0000000111111111111111111111111111111111111111111111111111111111011100
0000000111000110011111111111010000000000000000000000000000000000000000
0000000000000000000000000000000000000000000000000000000000000000000111
1111111111111111111111111111111111111111111111111111111111000000001000
0110001110111011111100000000000000000000000000000000000000000000000000
0000000000000000000000000000000000000000000000000000000001111111111111
1111111111111111111111111111111111111111111111110000000101000111011110
1000001110000000000000000000000000000000000000000000000000000000000000
0000000000000000000000000000000000000000000000011111111111111111111111
1111111111111111111111111111111111111000011101100000111101111101011111
0000000000000000000000000000000000000000000000000000000000000000000000
0000000000000000000000000000000000000011111111111111111111111111111111
1111111111000011111111110000011001010000001100010000111111110000000000
0000000000000000000000000000000000000000000000000000000000000000000000
0000000000000000000000000000111111111111111111111111111111111111111110
0000000111110000111111111111111110000000111111111100000000000000000000
0000000000000000000000000000000000000000000000000000000000000000000000
0000000000000000000111111111111111111111111111111111111111000000000000
1101111111111111111111111111100000011111000000000000000000000000000000
0000000000000000000000000000000000000000000000000000000000000000000000
0000000000111111111111111111111111111111111111000000000000000101111111
1111111110001111100000000000000000000000000000000000000000000000000000
0000000000000000000000000000000000000000000000000000000000000000000000
1111111111111111111111111111111111100000000000000001111111111111111110
0000000000000101000000000001000000000000000000000000000000000000000000
0000000000000000000000000000000000000000000000000000000000001111111111
1111111111111111111111110000000000000000000111111100000000000000000010
0111111101000000000000000000000000000000000000000000000000000000000000
0000000000000000000000000000000000000000000000000011111111111111111111
1111111111111100000000000000000000000000000000000001110000110011111100
0000000000000000000000000000000000000000000000000000000000000000000000
0000000000000000000000000000000000000000011111111111111111111111111111
1100000000000000000000000000000000011101111100001100000011110000000000
0000000000000000000000000000000000000000000000000000000000000000000000
0000000000000000000000000000000111111111111111111111111111110000000000
0000000000000000000000101011110001000010100000010000000000000000000000
0000000000000000000000000000000000000000000000000000000000000000000000
0000000000000000000000111111111111111111111111111000000000000000000000
0000000000011111110001100001001001100001000000000100000000000000000000
0000000000000000000000000000000000000000000000000000000000000000000000
0000000000001111111111111111111111111000000000000000000011100000000001
0111000000000000000000000111000000000000000000000000000000000000000000
0000000000000000000000000000000000000000000000000000000000000000000000
0001111111111111111111111110000000000000000000011111101111100000000000
1100000000000000000000000000000000000000000000000000000000000000000000
0000000001011111111111111111111111111111111111111111111111100001111111
1111111111111111000000000000000000000001111111100000000000000111000000
0110111010000000000000000000000000000000000000000000000111000000111111
1111111111111111111111111111111111111111111111111111111111111111111111
1111110001111110000000000000000011110001000000000000110101111110011111
0000000000000000000000000000000000000000000000000000000000111111111111
1111111111111111111111111111111111111111111111111111111111111111111111
1111111111111111100000001100011110000000001000101001111110010000000000
0000000000000000000000000000000000000000000000000011111111111111111111
1111111111111111111111111111111111111111111111111111111111111111111111
1111111111110001111111100000000000101000000000011000000000000000000000
0000000000000000000000000000000000000000001111111111111111111111111111
1111111111111111111111111111111111111111111111111111111111111111111111
1100000011111110010011100100000000000100000000000000000000000000000000
0000000000000000000000000000000011111111111111111111111111111111111111
1111111111111111111111111111111111111111111111111111111111111100000000
1111100000010000000000000001110000000000000000000000000000000000000000
0000000000000000000000111111111111111111111111111111111111111111111111
1111111111111111111111111111111111111111111111111111100000000010100000
1101011110000001111100000000000000000000000000000000000000000000000000
0000000000000111111111111111111111111111111111111111111111111111111111
1111111111111111111111111111111111111111111110000000100000000110000000
0000001000000000000000000000000000000000000000000000000000000000000000
0011111111111111111111111111111111111111111111111110111000001111110111
1111111111111111111111111111111111110000001101000000000000000000000000
0000000000000000000000000000000000000000000000000000000000000001111111
1111111111111111111111111111111111111111000000000000111000111111111111
1111111111111111111111111110001110000000000000000000000000000000000000
0000000000000000000000000000000000000000000000000000011111111111111111
1111111111111111111111111111111000000000000000000111111111111111111111
1111111111111111111011000000000000000000000000011100000000000000000000
0000000000000000000000000000000000010000000011111111111111111111111111
1111111111111111111111110000000000000001111111111111111111111111111111
1111111111111000000000000000000000001110000000000000000000000000000000
0000000000000000000000000010000000011111111111111111111111111111111111
1111111111111111100000000000011111111111111111111111111111111111111111
1111110000000000000000000111010000000000000000000000000000000000000000
0000000000000000010000000111111111111111111111111111111111111111111111
1111111100000000000111111111111111111111111111111111111111111111111000
0001111000001110000000000000000000100000000000000000000000000000000000
0000000100000000111111111111111111111111111111111111111111111111111101
1000000001111111111111111111111111111111111111111111111111111100000001
1111100011000000000000000000000000000000000000000000000000000000000000
0000001111111111111111111111111111111111111111111111111111111000000001
1111111111111111111111111111111111111111111111111111111111110000000110
0000000000000000000000000000000000000000000000000000000000000000000001
1111111111111111111111111111111111111111111111111111000000000111111111
1111111111111111111111111111111111111111111111110000001111110000000000
0000000000011000000000000000000000000000000000000000000000000111111111
1111111111111111111111111111111111111111110000010000111010111111111111
1111111111111111111111111111111111111100011111101000000000000001001100
0111000000000000000000000000000000000000000000000000000000111111111111
1111111111111111111111111111111100001110000000000111111111111111111111
1111111111111111111111111100011010000011000000000000110000000000000000
0000000000000111111111000000000000000110000000000000011111111111111111
1111111111111111111111000001111000000111111111111111111111111111111111
1111111111111100010000001111110000000000000000000000000000000000000000
0111101111111111000000000000011100000000000000111111111111111111111111
1111111111111110011110000011111111111111111111111111111111111111111111
1000001111100111110000000000000000000000111111011111110111111000000000
0001111100000001101001110000000000000000011111111111111111111111111111
1111111111110001111111111111111111111111111111111111111111100000001111
1111111111000000000000000011111111000011110000000000000000000000011111
1111111111111100000000000000000000111111111111111111111111111111111111
1111111111111111111111111111111111111111111000100000101011111111111000
0000000000000011111111110000000001000000000000000001000000111111111111
1111111111000000000000000111111111111111111111111111111111111111111111
1111111111111111111111111111111111100000000111111111011011100000000000
0111111100000001000000110000000000000001110111000000111111000001000000
0100100000000000011111111111111111111111111111111111111111111111111111
1111111111111111111111101100000111001100110111111100000000011111110000
0001000000100000000000000000000000010111111110000000000000000000001000
0000000011111111111111111111111111111111111111111111111111111111111111
1111111111111000000001011111110011111111000000111111110000000000000000
0000000000001100000001111000001110000100000000000000000111000000000011
1111111111111111111111111111111111111111111111111111111111111100001111
1000000110101101110111101111110000011111011100000000000000000000000000
0100000011111000011100000011111100000111111111000000000011111111111111
1111111111111111111111111111111111111111111111100000011111010000001111
1011011111101100010000000111111111000000000000000000000000100000000011
1100011100000000000010110111111111100000000000011111111111111111111111
1111111111111111111111111111101111100000000000011000000001111111111111
0110111000000000000011111100000000000000000000000000000001110001100000
0000000000000000001100000000000000000111000111111111111111111111111111
1111111111111111110000000100000111100000110000000001000011111111000000
0000000000011111000000000000000000000111000000000001000000000000000000
0000000000000000000000000000000011111111111111111111111111111111111111
1111111100010000000111001000000000101000001110111100000000000000000000
0011111110000000000000000000110011000000000000000000000000000000000000
0000000000000000000000000111111111111111111111111111111100000000000000
1100000000000111000000000010000000111000000000000000000000000000001101
0000000000000000001111111111000000000000000000000000000000000000000000
0000000000000000000011111111110110111111100000000001000000000011000000
0010000000000000000000000000000000000000000000000000000000111100000000
0000000000111111000000000000000000000000001000000000000000000000000000
0000000000000000000000000000000000000000111100011100000000000000000000
0000001000000000000000000000000000000000000000000111111110000000000010
1100000000000000000000000000000000000011000000000000000000000000000000
0000000000011100000000000000110000000000000000000000000000000000000000
0000000001000000000000000000000000000011111111110000000001110000000000
0000000000000000000001001110000000001100000000000000000000010000000000
0000000000000000000000111000000001000000000000000000000000000000000000
0000000000000000000000000000111111111100000000111000000000000000000000
0000000000000000000110000011000000000000000000001100011000000010000010
0000100010000000000010011100000000000000000000000000000000000000000000
1111111000000000011101111110000000111111000000000000000101000000000000
0000000000000000000000000000000000000000000011111100101000001111111001
0010000000011100000110000000000000000000000000000000000000000110001111
1001101110001111100111101111100000000000000000000100000000000000000000
0000000000000000000000000000000000001111111100001111011001111110111100
0000000001111000000000000000000000000000000000000000000001111111100000
0011111111111000011111000000000001111100000000000000000000000000000000
0000000000000000000000010001000000011001111000000011111110100110000000
0000000000000000000000000000000000101110000000000111000000000011000001
1000000111111000000000000000000000000000000000000000000000000000000000
0000000000000110111100010000000000000000111110001000000000000000000000
0000000000000000000000000000000000000011110000000100011000000000000001
1111100000000000000000000000000000000000000000000000000000000000000000
0111111110110000001000000000001110000100000000000000000000000000000000
0000000010000000000010111111111000000001001111111110000000000111100000
0000000000000000000000000000000000000000000000000000000000000000000000
1111100000000001100110000000000000000000000000000000000000000001001011
0111000000000011111111110001111000111111110000000001111100000000000000
0000000000000000000000000000000000000000000000000000000100100000000000
0001111111110000000000000000000000000000101000000000110111111000000000
0001111101111100000110001111111000000000011111000000000000000000000000
0000000000000000000000000000000000000000000011100000000000000000111111
1110000000000000000001000000000000000000000110111111000000001111111111
1100100000000001111100000000000101110000000000001111111000000000000000
0000000000000000000000000000000000000000000000000000000000001100000000
0000000000100000000000000000000100000000000000001100101111111111100001
1011111111111111100000001110000000000001001110000011000000000000000000
0000000000010000000000000000000000000000000000000000000000000000000000
0000000000000000000111101000011011110011000111111111100000011111111111
1111111000000000011000000000111110000000111000000000000000000000000000
0011000000000000000000000000000000000000000000000000000000000000000000
0001110111000000000011110111110001111111111000000000010011111110000000
0000001101100111111111000000001110000000000000000000000000000000100000
0000000000000000000000000000000000000000000000000000000000010110101000
0000000000100001110110111100111100000000101101111111110000000000011110
1001111110000000001111100000000000000000000000110000000111000011100000
0000101100000000000000000000000000000000000000000000000000000000000010
0000001111000011001100010000000011001111111100000000000001111100011011
1100000011111000000000000000000000000000000000000000000110000000000100
0000000000000000000000000000000000000000000000000000000011001110111111
1100111111111000000000001011111111000000000000000000000000011111000000
0000000000000000000000000000000000000000000000010000000001000000000000
0000000000000000000000000000000000000001000001111111011111111110010111
1110000000000000111111111000001111100000000000011111111000000000000010
0011000000000000000000000000000000000010000000001100000000000000000000
1100000000100000001110000000000010011111101111111110110000100000000000
0000000100111111100000000000000000000000111111000000000001100000000000
0000000000000000000000000100011100000000000000000000000000000000000000
1000000111000010000000000111111101101111