P2
11 14
255
0   0   0   1   1   1   1   0   0   0   0  
0   250 201 250 200 250 200 251 200 250 0  
0   251 0   250 0   250 0   250 1   250 0  
1   250 1   251 0   250 1   251 0   251 0  
1   250 201 251 200 250 201 251 200 251 0  
1   250 200 250 200 250 200 250 200 251 0  
1   250 0   251 0   250 1   250 0   251 0  
0   251 0   250 1   251 0   250 1   250 0  
0   250 201 250 200 250 200 251 200 250 0  
0   250 200 251 201 251 201 250 200 250 0  
0   250 0   250 0   0   0   250 0   250 0  
0   250 0   250 0   120 0   250 0   250 0  
0   250 200 250 0   120 0   250 200 250 0  
0   0   0   0   0   0   0   0   0   0   0  
