P1
# Created by GIMP version 2.10.18 PNM plug-in
5 5
0111010001111111000001110