P2
# CREATOR: GIMP PNM Filter Version 1.1
11 14
255
0
0
0
0
0
0
0
0
0
0
0
0
255
204
255
204
255
204
255
204
255
0
0
255
0
255
0
255
0
255
0
255
0
0
255
0
255
0
255
0
255
0
255
0
0
255
204
255
204
255
204
255
204
255
0
0
255
204
255
204
255
204
255
204
255
0
0
255
0
255
0
255
0
255
0
255
0
0
255
0
255
0
255
0
255
0
255
0
0
255
204
255
204
255
204
255
204
255
0
0
255
204
255
204
255
204
255
204
255
0
0
255
0
255
0
0
0
255
0
255
0
0
255
0
255
0
128
0
255
0
255
0
0
255
204
255
0
128
0
255
204
255
0
0
0
0
0
0
0
0
0
0
0
0
