P1
10 10
0001111000001000010001000000101011001101101100110110000000011001001001010011001000100001000001111000
